<?xml version="1.0" standalone="no"?>
<!DOCTYPE svg PUBLIC "-//W3C//DTD SVG 20010904//EN"
 "http://www.w3.org/TR/2001/REC-SVG-20010904/DTD/svg10.dtd">
<svg version="1.0" xmlns="http://www.w3.org/2000/svg"
 width="320.000000pt" height="320.000000pt" viewBox="0 0 320.000000 320.000000"
 preserveAspectRatio="xMidYMid meet">
<metadata>
Created by potrace 1.14, written by Peter Selinger 2001-2017
</metadata>
<g transform="translate(0.000000,320.000000) scale(0.100000,-0.100000)"
fill="#000000" stroke="none">
<path d="M1435 3193 c-112 -14 -276 -47 -310 -62 -85 -38 -127 -93 -173 -226
-23 -69 -48 -164 -57 -215 -3 -19 -11 -60 -17 -90 -18 -84 -14 -350 5 -438 65
-283 257 -528 473 -601 88 -29 99 -53 129 -276 15 -104 20 -204 20 -360 0
-174 -7 -251 -25 -317 -10 -36 -13 -38 -53 -38 -145 0 -393 -153 -412 -253
-21 -109 103 -221 306 -276 100 -28 154 -34 284 -34 168 -1 345 49 465 131
115 79 153 205 83 279 -14 16 -30 35 -37 43 -48 64 -158 115 -271 125 -110 11
-149 16 -153 20 -2 2 -8 21 -13 42 -10 42 -5 571 5 618 4 17 15 71 25 120 22
111 38 138 94 154 88 26 180 84 262 166 183 180 264 370 270 630 3 122 -4 194
-30 330 -15 74 -72 229 -121 330 -49 102 -56 111 -96 129 -44 19 -85 30 -148
41 -19 3 -48 8 -63 11 -73 15 -367 26 -442 17z m400 -37 c76 -12 220 -48 246
-62 29 -15 41 -36 33 -58 -6 -15 -108 -51 -174 -61 -27 -5 -23 -1 19 14 71 27
89 45 25 24 -89 -28 -125 -32 -158 -17 l-31 13 37 1 c20 0 40 4 43 10 6 9 -10
15 -65 23 -14 3 -2 5 25 7 41 2 45 3 25 10 -24 8 -24 8 -2 11 12 1 28 2 35 3
6 1 15 6 20 11 4 6 10 5 15 -3 5 -7 36 -18 70 -24 34 -6 59 -15 56 -20 -3 -4
4 -8 14 -8 22 0 34 20 23 38 -34 56 -366 98 -641 82 -72 -4 -340 -74 -351 -91
-10 -17 -23 -5 -15 16 7 19 78 50 136 60 74 11 103 16 145 24 46 9 409 6 470
-3z m-405 -40 c0 -8 -147 -104 -170 -111 l-25 -7 25 18 c14 10 29 24 33 31 4
7 15 13 23 13 21 0 65 35 56 45 -4 5 -2 6 3 3 6 -3 19 -2 30 3 25 10 25 10 25
5z m70 -5 c3 -1 -8 -9 -25 -18 -16 -9 -54 -34 -82 -55 -29 -21 -55 -38 -58
-38 -3 0 -13 0 -22 -1 -15 0 -15 -2 2 -9 24 -10 10 -12 -23 -4 -21 6 -16 11
40 45 35 21 76 49 92 62 25 20 51 26 76 18z m-11 -51 c-35 -32 -59 -59 -53
-60 6 0 24 12 40 28 32 29 100 82 107 82 2 0 4 -9 3 -20 0 -11 -17 -33 -36
-50 -36 -32 -26 -31 22 2 27 19 83 25 92 9 3 -4 -8 -7 -24 -5 -16 2 -32 -1
-35 -6 -4 -6 14 -10 45 -10 34 0 49 -4 45 -11 -4 -6 -13 -8 -19 -6 -7 3 -19 2
-26 -3 -26 -16 1 -26 69 -25 39 1 71 -2 71 -7 0 -13 -65 -14 -250 -3 -146 9
-150 9 -180 0 -22 -7 -23 -6 -10 8 15 15 191 137 199 137 2 0 -25 -27 -60 -60z
m-141 36 c-10 -7 -14 -17 -10 -21 4 -5 2 -5 -5 -2 -12 7 -73 -22 -73 -35 0 -4
-10 -12 -22 -19 -14 -6 -6 5 17 27 22 20 32 34 23 31 -10 -4 -18 -3 -18 2 0 5
9 11 20 14 11 3 18 1 14 -4 -3 -5 0 -9 5 -9 6 0 11 4 11 9 0 5 8 12 18 14 31
8 37 7 20 -7z m-113 -46 c-10 -11 -22 -20 -28 -20 -5 0 1 9 14 20 31 25 37 25
14 0z m-90 -40 c3 -5 2 -10 -4 -10 -5 0 -13 5 -16 10 -3 6 -2 10 4 10 5 0 13
-4 16 -10z m1015 -55 c0 -6 -12 -17 -27 -24 -24 -11 -25 -11 -12 5 8 9 12 26
11 38 -3 17 -2 18 12 7 9 -7 16 -19 16 -26z m-883 9 c-3 -3 -12 -4 -19 -1 -8
3 -5 6 6 6 11 1 17 -2 13 -5z m620 0 c-3 -3 -12 -4 -19 -1 -8 3 -5 6 6 6 11 1
17 -2 13 -5z m-820 -20 c-3 -3 -12 -4 -19 -1 -8 3 -5 6 6 6 11 1 17 -2 13 -5z
m280 0 c-3 -3 -12 -4 -19 -1 -8 3 -5 6 6 6 11 1 17 -2 13 -5z m263 -4 c-18
-12 -30 -13 -30 -2 0 4 10 9 22 9 18 2 20 0 8 -7z m615 -192 c13 -49 20 -88
16 -88 -4 0 -23 8 -43 19 -29 14 -34 21 -25 30 9 10 8 15 -6 22 -16 10 -16 12
5 29 36 30 2 24 -52 -9 -27 -16 -50 -28 -52 -26 -1 2 -21 6 -43 10 -22 4 -47
8 -54 9 -25 4 -38 34 -22 48 8 8 11 8 7 1 -4 -8 10 -10 52 -8 31 1 51 1 45 -2
-7 -3 -13 -9 -13 -14 0 -6 5 -7 12 -3 8 5 9 2 5 -9 -9 -23 4 -21 67 10 47 23
53 29 45 45 -8 15 -13 16 -32 7 -22 -12 -22 -12 -3 10 22 24 12 27 -24 6 -43
-25 -47 -16 -5 11 31 20 34 25 15 20 -27 -5 -27 -6 27 32 19 14 20 14 -37 -5
-8 -3 0 5 18 17 17 12 32 27 33 33 0 16 34 -86 64 -195z m-1060 182 c33 -13
84 -23 110 -22 11 1 15 -2 9 -6 -6 -4 -16 -17 -23 -29 -10 -19 -17 -21 -59
-17 -26 2 -56 6 -67 8 -11 3 -33 5 -48 5 -26 1 -27 3 -16 24 7 12 12 23 11 25
-16 22 36 30 83 12z m-152 -19 c-3 -11 -14 -28 -24 -37 -19 -17 -20 -17 -13 1
7 16 35 55 40 55 1 0 0 -9 -3 -19z m295 -45 c-18 -28 -25 -32 -31 -20 -10 17
17 54 40 54 9 0 7 -10 -9 -34z m31 -6 c-13 -16 -24 -28 -27 -26 -6 6 29 56 39
56 5 0 0 -13 -12 -30z m236 14 c84 -4 135 -10 143 -19 8 -7 16 -30 19 -52 l5
-40 -143 -1 c-79 -1 -177 -5 -218 -8 -69 -5 -73 -4 -66 13 4 10 8 25 9 34 0 8
12 32 25 51 22 31 29 35 60 32 20 -2 95 -7 166 -10z m-488 -21 c16 -6 15 -8
-7 -14 l-25 -7 23 -7 c12 -4 22 -13 22 -21 0 -7 15 -18 33 -23 23 -7 26 -9 10
-10 -12 -1 -33 3 -47 9 -43 16 -40 -8 5 -30 48 -25 47 -34 -2 -20 -47 14 -58
12 -35 -5 15 -11 16 -15 5 -19 -8 -2 -22 -7 -31 -10 -21 -6 -21 -3 -9 44 6 19
15 54 21 78 6 23 12 42 15 42 2 0 12 -3 22 -7z m833 -6 c-8 -8 -80 -15 -76 -8
3 4 22 8 42 9 21 2 36 1 34 -1z m-940 -11 c0 -2 -8 -10 -17 -17 -16 -13 -17
-12 -4 4 13 16 21 21 21 13z m915 -26 c-3 -5 1 -10 9 -10 10 0 16 -9 16 -25 0
-20 -4 -24 -22 -21 -13 3 -30 5 -39 5 -11 1 -18 12 -21 31 -4 28 -3 30 29 30
20 0 32 -4 28 -10z m-685 -10 c0 -5 -4 -10 -10 -10 -5 0 -10 5 -10 10 0 6 5
10 10 10 6 0 10 -4 10 -10z m601 -15 c5 4 9 -1 9 -10 0 -26 -33 -13 -36 15 -3
21 -2 23 7 7 6 -9 14 -15 20 -12z m-571 5 c0 -5 -4 -10 -10 -10 -5 0 -10 5
-10 10 0 6 5 10 10 10 6 0 10 -4 10 -10z m-280 -25 c-7 -9 -15 -13 -18 -10 -3
2 1 11 8 20 7 9 15 13 18 10 3 -2 -1 -11 -8 -20z m332 -7 c-7 -7 -12 -8 -12
-2 0 14 12 26 19 19 2 -3 -1 -11 -7 -17z m-351 -62 c-24 -23 -30 -26 -25 -11
10 29 48 68 53 54 2 -6 -11 -25 -28 -43z m619 48 c0 -8 -19 -13 -24 -6 -3 5 1
9 9 9 8 0 15 -2 15 -3z m510 -46 c0 -6 7 -7 15 -4 9 3 18 -1 21 -9 4 -8 10
-13 14 -10 4 3 11 -2 14 -11 4 -10 14 -14 26 -11 13 3 24 -1 30 -13 14 -27 13
-30 -17 -30 -25 0 -26 0 -8 20 25 28 11 25 -16 -2 -15 -17 -23 -19 -26 -10 -8
20 -56 68 -75 75 -25 9 -23 26 2 20 11 -3 20 -10 20 -15z m-975 -4 c-19 -15
-17 -15 28 -10 31 4 47 3 47 -4 0 -6 -4 -9 -9 -5 -5 3 -12 1 -15 -4 -3 -5 1
-11 9 -15 11 -4 13 -11 5 -28 -5 -13 -14 -49 -20 -80 -6 -32 -14 -59 -18 -62
-4 -2 -33 8 -64 21 -63 28 -66 36 -52 125 6 32 12 39 53 57 55 24 62 25 36 5z
m445 12 c0 -2 -11 -6 -25 -8 -13 -3 -22 -1 -19 3 5 9 44 13 44 5z m150 -3
c-112 -42 -173 -62 -165 -55 13 13 145 61 165 61 13 -1 13 -1 0 -6z m78 -24
c-2 -6 -40 -26 -83 -43 -75 -31 -170 -73 -187 -83 -5 -2 -8 1 -8 7 0 6 8 13
18 16 9 4 31 12 47 19 17 7 50 21 75 31 25 10 63 28 85 40 45 26 58 29 53 13z
m249 5 c-3 -3 -12 -4 -19 -1 -8 3 -5 6 6 6 11 1 17 -2 13 -5z m-1070 -24 c-2
-11 -7 -23 -12 -27 -4 -5 -5 -2 -1 5 4 7 2 12 -5 12 -8 0 -8 4 1 15 17 20 20
19 17 -5z m403 5 c-7 -9 -15 -13 -19 -10 -3 3 1 10 9 15 21 14 24 12 10 -5z
m-34 -14 c-4 -6 -14 -7 -23 -4 -15 6 -14 7 3 13 22 9 29 6 20 -9z m170 4 c-11
-8 -22 -12 -25 -9 -6 6 19 24 34 24 6 -1 1 -7 -9 -15z m-101 -57 c-8 -29 -15
-54 -15 -55 2 -24 -3 -33 -17 -34 -15 -1 -15 -2 -2 -6 20 -5 13 -53 -8 -53
-14 0 -14 28 0 90 2 8 7 36 11 62 6 31 14 48 25 51 24 5 24 4 6 -55z m52 25
c-7 -21 -13 -44 -13 -50 -1 -7 -2 -24 -2 -38 -1 -15 -8 -25 -17 -25 -13 0 -15
8 -10 38 14 77 26 112 40 112 12 0 12 -6 2 -37z m641 21 c30 -21 28 -34 -8
-34 -22 0 -28 -4 -24 -15 7 -17 -4 -19 -26 -5 -13 8 -11 12 8 26 13 9 21 22
18 30 -7 18 4 18 32 -2z m-749 -71 c-10 -38 -19 -78 -19 -90 0 -12 -5 -25 -11
-28 -11 -8 -9 13 10 100 17 72 21 85 31 85 5 0 0 -30 -11 -67z m177 58 c-6 -9
-46 -22 -46 -15 0 3 10 9 23 14 29 11 29 11 23 1z m-200 -23 c-3 -13 -13 -51
-22 -85 -11 -41 -22 -63 -31 -63 -9 0 -13 7 -10 18 3 9 8 31 12 47 17 82 27
105 42 105 11 0 14 -6 9 -22z m219 2 c-3 -5 -12 -10 -18 -10 -7 0 -6 4 3 10
19 12 23 12 15 0z m-55 -25 c-7 -9 -15 -13 -17 -11 -7 7 7 26 19 26 6 0 6 -6
-2 -15z m790 -12 c0 -46 -17 -60 -22 -19 -2 20 -2 39 1 41 12 12 21 2 21 -22z
m-1330 8 c-1 -13 -30 -44 -36 -38 -4 4 -2 13 4 20 7 8 10 16 7 19 -3 2 2 5 10
5 8 0 15 -3 15 -6z m1255 -1 c3 -6 -1 -7 -9 -4 -18 7 -21 14 -7 14 6 0 13 -4
16 -10z m-425 -14 c0 -11 -140 -75 -145 -66 -3 6 -2 10 4 10 5 0 38 13 73 30
69 32 68 32 68 26z m-290 -21 c0 -8 -4 -15 -10 -15 -5 0 -10 7 -10 15 0 8 5
15 10 15 6 0 10 -7 10 -15z m93 0 c-28 -19 -73 -36 -73 -27 0 7 66 39 85 41 5
1 0 -6 -12 -14z m698 -42 c-12 -20 -14 -14 -5 12 4 9 9 14 11 11 3 -2 0 -13
-6 -23z m-103 -15 c3 -22 -5 -28 -68 -56 -38 -18 -75 -32 -80 -32 -18 0 -11
28 9 35 29 9 133 67 128 71 -2 2 -36 -12 -76 -32 -40 -20 -75 -33 -78 -30 -3
3 20 17 53 31 32 14 66 29 74 35 22 13 35 6 38 -22z m-1121 7 c15 -9 41 -20
56 -25 l28 -10 -7 -87 c-10 -126 -10 -203 -1 -240 12 -47 -6 -41 -29 8 -23 52
-32 33 -10 -22 9 -22 12 -38 6 -34 -5 3 -10 10 -10 14 0 17 -31 83 -37 78 -3
-3 2 -27 11 -53 21 -62 14 -68 -8 -7 -10 27 -21 57 -26 68 -20 45 -26 132 -21
303 1 26 10 27 48 7z m-133 -19 c-6 -16 -24 -23 -24 -8 0 10 22 33 27 28 2 -2
1 -11 -3 -20z m506 -7 c0 -11 -7 -19 -16 -19 -11 0 -14 5 -10 16 3 9 6 20 6
25 0 6 5 7 10 4 6 -3 10 -15 10 -26z m853 -34 c-9 -19 -18 -33 -20 -32 -5 6
21 67 29 67 4 0 0 -16 -9 -35z m-1362 -9 c-7 -8 -10 -19 -8 -23 3 -5 8 -37 11
-71 22 -241 139 -471 299 -588 177 -131 391 -172 572 -110 44 15 106 43 138
62 32 19 69 37 83 40 13 3 27 10 30 15 3 5 11 9 17 9 19 0 -63 -67 -128 -104
-71 -41 -169 -74 -245 -84 -85 -11 -203 -7 -208 6 -2 7 -11 12 -20 12 -34 1
-184 70 -246 114 -82 58 -171 157 -190 210 -78 217 -90 246 -98 234 -6 -10 -8
-10 -9 2 0 8 -3 24 -5 35 -3 11 -8 68 -11 127 -4 80 -2 112 7 123 7 9 15 13
18 10 3 -2 -1 -11 -7 -19z m1059 4 c-6 -11 -12 -20 -14 -20 -2 0 -2 9 1 20 3
11 9 20 15 20 5 0 4 -9 -2 -20z m210 -40 c6 -83 6 -83 -77 -115 -43 -17 -82
-32 -86 -34 -5 -1 -7 14 -5 34 3 35 6 38 63 62 33 14 65 29 70 35 6 5 -15 0
-45 -13 -90 -35 -90 -35 -90 -1 0 28 4 32 38 38 20 4 55 17 77 30 45 25 52 21
55 -36z m-280 40 c-10 -6 -11 -10 -2 -10 6 0 12 -7 12 -15 0 -8 -4 -15 -10
-15 -5 0 -9 6 -7 13 1 6 -4 11 -12 9 -12 -3 -12 0 -1 12 7 9 18 16 24 16 6 0
4 -5 -4 -10z m386 -42 c-1 -24 -8 -53 -15 -65 -6 -13 -7 -23 -2 -23 5 0 12 6
15 13 2 6 4 -3 3 -21 -1 -18 -7 -38 -14 -44 -15 -12 -18 -32 -3 -23 6 3 10 2
10 -4 0 -11 -28 -41 -38 -41 -3 0 -1 5 6 12 13 13 16 32 4 24 -10 -6 -9 35 1
52 5 7 6 20 3 28 -3 8 1 28 9 44 19 38 19 50 -1 25 -9 -11 -14 -15 -12 -10 3
6 11 25 18 43 8 17 15 32 17 32 1 0 1 -19 -1 -42z m-922 7 c-4 -8 -12 -15 -18
-15 -7 0 -13 7 -13 15 0 8 8 15 18 15 12 0 16 -5 13 -15z m489 8 c-7 -2 -19
-2 -25 0 -7 3 -2 5 12 5 14 0 19 -2 13 -5z m-449 -34 c-1 -13 -3 -45 -5 -71
-2 -33 -7 -48 -17 -48 -10 0 -12 11 -6 53 4 28 6 62 6 75 -1 15 3 22 11 19 6
-2 11 -15 11 -28z m107 6 c5 -4 8 -21 8 -38 -1 -24 -3 -26 -6 -9 -2 12 -10 22
-18 22 -9 0 -12 -14 -11 -47 1 -25 -3 -51 -9 -56 -6 -6 -10 -24 -8 -41 3 -31
3 -31 -8 -6 -6 15 -9 54 -6 97 4 58 3 71 -8 67 -8 -3 -16 -20 -18 -37 -3 -20
-4 -13 -4 16 l1 48 39 -5 c21 -3 42 -8 48 -11z m366 -17 c-3 -7 -5 -2 -5 12 0
14 2 19 5 13 2 -7 2 -19 0 -25z m-600 0 c-3 -8 -6 -5 -6 6 -1 11 2 17 5 13 3
-3 4 -12 1 -19z m629 3 c0 -11 -4 -17 -8 -15 -4 3 -8 12 -8 20 0 8 4 14 8 14
4 0 8 -9 8 -19z m-126 -1 c0 -5 -8 -10 -17 -10 -15 0 -16 2 -3 10 19 12 20 12
20 0z m46 3 c-10 -11 -36 -12 -36 -2 0 5 10 9 22 9 12 0 18 -3 14 -7z m34 -3
c0 -5 -2 -10 -4 -10 -3 0 -8 5 -11 10 -3 6 -1 10 4 10 6 0 11 -4 11 -10z
m-123 -6 c-3 -3 -12 -4 -19 -1 -8 3 -5 6 6 6 11 1 17 -2 13 -5z m-180 -34 c1
-11 -2 -20 -8 -20 -10 0 -12 23 -2 33 9 9 9 10 10 -13z m273 11 c0 -13 -19
-18 -85 -20 -72 -3 -70 5 4 13 30 3 57 8 59 11 8 8 22 6 22 -4z m50 0 c0 -6
-4 -13 -10 -16 -5 -3 -10 1 -10 9 0 9 5 16 10 16 6 0 10 -4 10 -9z m31 -10 c7
11 9 11 9 -3 0 -9 -6 -19 -12 -21 -7 -3 0 -6 16 -6 23 -1 26 -4 17 -15 -7 -8
-13 -50 -16 -95 -2 -44 -5 -84 -8 -88 -3 -4 -8 -39 -11 -78 -3 -38 -12 -90
-19 -115 l-14 -45 -1 40 c0 22 6 65 14 95 17 67 33 209 23 215 -4 3 -10 -26
-15 -63 l-8 -67 -7 60 c-6 59 -6 59 -7 13 -1 -27 -6 -48 -11 -48 -5 0 -7 28
-4 63 7 78 -5 71 -13 -9 -4 -32 -7 -60 -8 -60 0 -1 -46 -4 -101 -8 -55 -3
-111 -8 -125 -10 -14 -2 -50 -7 -81 -11 l-57 -6 -17 70 c-9 39 -21 68 -26 65
-5 -3 -6 -10 -3 -16 4 -7 2 -8 -4 -4 -7 4 -12 19 -11 34 0 22 2 23 8 9 4 -10
11 -18 16 -16 6 1 15 -14 20 -34 13 -44 29 -62 20 -22 -6 29 -6 29 10 10 16
-20 17 -20 15 5 -3 41 1 57 9 30 6 -23 11 -25 61 -23 30 2 73 5 95 8 127 15
140 16 125 6 -8 -6 -10 -11 -4 -11 6 0 17 7 25 16 12 14 6 15 -64 12 -42 -2
-77 -1 -77 4 0 4 10 8 23 8 12 0 53 8 89 19 47 12 69 15 72 7 2 -6 5 3 5 21 1
17 5 34 10 37 5 4 8 -2 7 -11 -2 -10 2 -3 8 16 5 18 12 28 14 21 3 -9 6 -9 13
1z m-248 -18 c-7 -2 -19 -2 -25 0 -7 3 -2 5 12 5 14 0 19 -2 13 -5z m-150 -18
c-3 -9 -8 -14 -10 -11 -3 3 -2 9 2 15 9 16 15 13 8 -4z m-86 -15 c-3 -21 -17
-40 -17 -22 0 13 11 42 16 42 2 0 3 -9 1 -20z m128 3 c-2 -10 -4 -35 -4 -56
-1 -38 -19 -48 -29 -17 -3 7 0 10 7 6 7 -5 11 7 11 38 0 25 4 46 9 46 5 0 8
-8 6 -17z m184 3 c-2 -2 -40 -7 -84 -11 -44 -4 -77 -4 -74 -1 3 4 37 9 75 12
38 3 71 8 73 10 6 5 16 -5 10 -10z m81 10 c0 -2 -15 -6 -34 -8 -19 -2 -32 0
-30 4 5 8 64 12 64 4z m352 -38 c-3 -36 -7 -43 -25 -44 -12 0 -31 -4 -42 -8
-11 -4 -5 2 13 14 42 29 41 33 -5 13 -43 -18 -82 -43 -68 -43 6 -1 -1 -8 -15
-16 l-25 -15 30 6 c17 3 49 15 72 26 44 21 73 18 53 -6 -5 -7 -13 -32 -16 -56
-10 -68 -28 -93 -92 -127 -33 -18 -63 -32 -67 -32 -8 0 6 144 15 150 4 3 8 14
8 25 -2 80 0 84 50 105 26 11 61 27 77 35 42 19 41 20 37 -27z m-324 20 c-5
-15 -91 -34 -195 -43 -60 -6 -73 -4 -73 7 0 11 14 14 62 13 34 -2 76 2 93 6
16 5 43 12 60 15 16 3 31 7 34 10 9 9 22 3 19 -8z m-453 -78 c5 -36 1 -29 -16
25 -6 20 -6 26 1 19 5 -5 12 -25 15 -44z m265 8 c0 -5 -21 -8 -46 -8 -25 0
-43 3 -41 8 3 4 24 7 46 7 23 0 41 -3 41 -7z m-386 -82 c9 -27 14 -52 11 -54
-2 -3 -7 4 -11 14 -3 10 -8 26 -11 34 -16 48 -22 73 -14 64 5 -5 16 -31 25
-58z m977 21 c-13 -12 -20 -15 -16 -7 14 26 28 41 33 35 3 -3 -5 -16 -17 -28z
m-999 -37 c11 -47 12 -57 1 -49 -22 19 -42 109 -24 109 4 0 15 -27 23 -60z
m195 -54 c-5 -15 -34 37 -41 74 -6 32 -5 31 18 -15 14 -27 25 -54 23 -59z
m500 30 c-2 -36 -1 -70 3 -76 9 -15 -14 -83 -30 -88 -12 -4 -10 26 5 98 2 8 6
41 10 73 10 77 18 73 12 -7z m-730 31 c0 -30 39 -133 70 -184 18 -31 31 -58
29 -60 -2 -3 12 -20 32 -40 21 -20 29 -30 19 -23 -24 18 -35 3 -11 -15 22 -17
34 -19 34 -5 0 5 16 2 35 -7 23 -11 32 -20 25 -27 -6 -6 -16 -4 -28 7 -21 19
-37 23 -26 6 3 -6 22 -17 40 -25 42 -18 46 -37 4 -23 -16 6 -30 14 -30 19 0
10 -51 43 -67 43 -7 0 -11 3 -8 5 6 7 -15 32 -27 32 -5 0 -6 -6 -2 -12 4 -7 3
-9 -1 -5 -12 10 -15 37 -5 37 5 0 12 -4 15 -10 3 -5 12 -10 18 -10 7 0 1 9
-13 20 -14 10 -27 17 -29 14 -5 -5 -51 61 -51 73 0 4 10 -7 21 -24 40 -63 36
-32 -8 54 -45 92 -66 150 -57 165 8 12 21 10 21 -5z m1037 -2 c-4 -8 -11 -15
-16 -15 -6 0 -5 6 2 15 7 8 14 15 16 15 2 0 1 -7 -2 -15z m-1058 -65 c7 -22 9
-40 5 -40 -6 0 -41 79 -41 95 0 20 25 -18 36 -55z m661 8 c-11 -51 -28 -90
-35 -83 -3 3 -10 1 -16 -4 -6 -5 -47 -12 -91 -15 -100 -8 -158 -16 -165 -23
-6 -6 148 3 208 13 35 5 42 4 42 -10 0 -9 -8 -16 -17 -17 -11 0 -13 -3 -5 -6
18 -7 15 -33 -5 -33 -15 0 -16 -2 -3 -10 22 -14 6 -22 -21 -10 -16 7 -48 8
-96 2 -68 -8 -119 0 -83 12 18 6 86 15 118 16 12 0 22 4 22 8 0 5 -21 6 -46 2
-90 -14 -115 -8 -136 29 -10 18 -18 35 -16 36 2 1 29 5 60 9 77 8 196 35 203
47 4 5 -3 5 -17 0 -13 -5 -46 -12 -73 -16 -28 -4 -59 -9 -70 -11 -92 -17 -113
-16 -124 5 -7 11 -8 22 -4 22 13 2 65 7 128 13 91 9 148 17 173 27 36 14 42
11 42 -17 0 -14 -4 -23 -10 -19 -5 3 -10 1 -10 -5 0 -29 26 1 33 38 4 23 12
42 16 42 5 0 4 -19 -2 -42z m-45 22 c-12 -5 -50 -12 -85 -16 -34 -3 -64 -8
-67 -9 -3 -2 -41 -6 -85 -10 -44 -4 -83 -9 -86 -11 -4 -2 -9 3 -13 11 -4 11 3
15 27 16 60 2 219 18 224 23 2 1 26 3 55 4 42 1 48 -1 30 -8z m-626 -75 l14
-30 -21 25 c-11 14 -26 32 -34 41 -10 13 -10 20 -2 28 9 9 14 6 21 -11 5 -13
15 -36 22 -53z m700 67 c-2 -4 -7 -28 -11 -52 -7 -47 -11 -57 -20 -48 -8 8 17
108 27 108 5 0 7 -3 4 -8z m318 -91 c-26 -57 -46 -87 -68 -101 -17 -11 -26
-20 -20 -20 5 0 16 6 24 13 7 6 1 -5 -14 -25 -28 -37 -56 -59 -91 -71 -12 -4
-2 10 25 35 25 24 45 46 46 51 1 4 2 11 3 17 0 5 11 19 24 30 12 12 22 24 22
28 0 4 13 24 28 44 16 20 30 43 31 50 6 27 20 52 23 41 2 -6 -12 -48 -33 -92z
m-1114 54 c0 -5 -5 -3 -10 5 -5 8 -10 20 -10 25 0 6 5 3 10 -5 5 -8 10 -19 10
-25z m339 -25 c11 -24 11 -24 -3 -6 -9 11 -16 24 -16 30 0 12 5 7 19 -24z
m-319 -10 c9 -16 8 -18 -5 -14 -8 4 -15 12 -15 20 0 20 7 17 20 -6z m261 3
c13 -16 12 -17 -3 -4 -10 7 -18 15 -18 17 0 8 8 3 21 -13z m732 -1 c-2 -11
-15 -19 -31 -20 l-27 -2 30 19 c17 11 31 20 32 20 0 1 -1 -7 -4 -17z m-693
-52 c12 -16 19 -30 16 -30 -2 0 -14 14 -26 30 -12 17 -19 30 -16 30 2 0 14
-13 26 -30z m678 8 c-5 -13 -78 -41 -78 -29 0 7 57 39 73 40 5 1 7 -4 5 -11z
m-264 -13 c-4 -8 -8 -15 -10 -15 -2 0 -4 7 -4 15 0 8 4 15 10 15 5 0 7 -7 4
-15z m36 3 c-1 -25 -47 -142 -57 -145 -5 -2 2 32 15 77 14 44 30 80 34 80 4 0
8 -6 8 -12z m200 -31 c0 -2 -9 -12 -20 -22 -24 -21 -27 -14 -4 9 15 15 24 20
24 13z m-829 -24 c13 -16 12 -17 -3 -4 -10 7 -18 15 -18 17 0 8 8 3 21 -13z
m680 -30 c-22 -44 -50 -82 -51 -70 -1 22 44 107 56 107 11 0 10 -8 -5 -37z
m-443 -26 c13 4 14 3 3 -5 -20 -15 -47 -3 -61 26 l-11 26 26 -26 c16 -16 33
-25 43 -21z m239 17 c-3 -3 -12 -4 -19 -1 -8 3 -5 6 6 6 11 1 17 -2 13 -5z
m-432 -14 c3 -5 2 -10 -4 -10 -5 0 -13 5 -16 10 -3 6 -2 10 4 10 5 0 13 -4 16
-10z m394 6 c-2 -2 -26 -6 -54 -10 -36 -5 -46 -4 -35 3 13 10 99 16 89 7z
m101 -14 c0 -16 -28 -47 -36 -39 -4 4 -2 7 4 7 7 0 12 5 12 10 0 6 -24 11 -52
11 -49 2 -51 2 -18 9 50 10 90 11 90 2z m-520 -44 c0 -13 -5 -9 -31 19 l-24
26 27 -19 c15 -10 28 -22 28 -26z m593 22 c-3 -10 -12 -25 -21 -32 -13 -11
-12 -8 2 20 19 36 27 41 19 12z m-330 3 c-7 -2 -19 -2 -25 0 -7 3 -2 5 12 5
14 0 19 -2 13 -5z m2 -23 c-3 -5 -12 -10 -18 -10 -7 0 -6 4 3 10 19 12 23 12
15 0z m274 -21 c-10 -19 -9 -20 11 -14 14 4 20 3 16 -3 -3 -5 -15 -12 -26 -15
-11 -3 -18 -1 -15 4 4 5 -9 6 -27 3 l-33 -5 30 15 c17 8 26 15 20 16 -8 1 16
15 33 19 1 1 -2 -8 -9 -20z m-45 1 c-13 -13 -74 -22 -74 -11 0 9 17 14 64 18
11 1 15 -2 10 -7z m-157 -16 c-3 -3 -12 -4 -19 -1 -8 3 -5 6 6 6 11 1 17 -2
13 -5z m40 0 c-3 -3 -12 -4 -19 -1 -8 3 -5 6 6 6 11 1 17 -2 13 -5z m46 -81
c-7 -2 -19 -2 -25 0 -7 3 -2 5 12 5 14 0 19 -2 13 -5z m-169 -149 c9 -3 14
-10 11 -15 -7 -10 -35 0 -35 12 0 11 3 11 24 3z m166 -14 c0 -11 -4 -20 -8
-20 -4 0 -8 9 -8 20 0 11 4 20 8 20 4 0 8 -9 8 -20z m-55 -6 c-16 -8 -40 -12
-52 -9 -39 9 -25 20 29 22 l52 2 -29 -15z m-15 -74 c-19 -13 -30 -13 -30 0 0
6 10 10 23 10 18 0 19 -2 7 -10z m-15 -89 c3 -5 2 -12 -3 -15 -5 -3 -9 1 -9 9
0 17 3 19 12 6z m29 -28 c-7 -37 -14 -42 -14 -11 0 21 7 38 16 38 1 0 0 -12
-2 -27z m-54 -38 c0 -2 -7 -5 -15 -9 -9 -3 -15 0 -15 9 0 9 6 12 15 9 8 -4 15
-7 15 -9z m27 -17 c-3 -7 -5 -2 -5 12 0 14 2 19 5 13 2 -7 2 -19 0 -25z m-50
-40 c-3 -8 -6 -5 -6 6 -1 11 2 17 5 13 3 -3 4 -12 1 -19z m79 -149 c2 -74 6
-191 9 -262 2 -70 7 -136 10 -146 3 -11 8 -43 10 -73 2 -29 6 -65 10 -81 l5
-27 -20 20 c-11 11 -20 29 -20 41 0 11 -4 17 -10 14 -5 -3 -10 -1 -10 5 0 6
-4 9 -9 6 -13 -8 -19 15 -13 49 3 17 5 144 5 282 -1 148 3 251 8 247 5 -3 9
12 9 32 0 21 2 35 5 32 3 -3 8 -65 11 -139z m-68 -241 c0 -51 -6 -125 -13
-164 -15 -74 -44 -158 -53 -150 -2 3 3 23 11 45 25 61 28 82 42 296 4 68 3 65
9 65 3 0 4 -42 4 -92z m211 -245 c36 -4 58 -22 40 -33 -5 -4 -1 -17 11 -30 25
-29 25 -34 0 -20 -18 10 -25 28 -21 53 1 5 -4 5 -10 1 -6 -3 -15 0 -20 7 -13
22 -22 2 -9 -23 8 -15 2 -11 -18 12 -32 36 -41 57 -20 44 7 -4 28 -9 47 -11z
m-305 -28 c-4 -10 -20 -15 -46 -15 -28 0 -37 -3 -32 -12 4 -7 4 -10 0 -6 -16
14 -6 23 36 35 24 6 44 11 45 12 1 1 0 -6 -3 -14z m459 -7 c80 -25 163 -73
188 -108 24 -33 35 -80 19 -80 -6 0 -8 5 -5 10 3 6 0 10 -8 10 -7 0 -24 -25
-36 -55 -13 -30 -27 -55 -32 -55 -5 0 0 16 11 35 26 47 33 86 14 78 -8 -3 -13
-8 -10 -10 10 -10 -42 -98 -66 -112 -21 -13 -20 -11 6 24 30 38 26 39 -26 3
-18 -12 -36 -17 -48 -13 -12 4 -31 0 -45 -9 -13 -9 -28 -16 -32 -16 -4 0 0 5
10 11 9 5 17 15 17 20 0 6 -13 1 -28 -10 -35 -25 -77 -35 -99 -25 -27 12 -192
11 -185 -1 3 -5 -1 -5 -9 1 -19 16 -89 34 -89 24 0 -5 18 -11 40 -15 22 -4 38
-11 35 -15 -6 -9 -30 -7 -68 6 -12 5 -31 7 -42 5 -15 -1 -17 0 -6 7 9 7 -5 12
-45 17 -32 4 -74 15 -93 26 -20 10 -40 19 -45 19 -15 0 -56 42 -56 57 0 8 5
11 12 7 6 -4 8 -3 4 4 -3 6 4 19 17 29 27 22 25 57 -4 50 -10 -3 -17 -2 -14 3
2 4 26 8 52 8 27 0 42 -2 36 -5 -7 -2 -13 -9 -13 -14 0 -5 23 0 50 11 68 27
75 25 20 -6 -41 -23 -36 -26 15 -10 11 4 -2 -4 -28 -18 -60 -30 -40 -41 32
-17 28 10 49 16 47 13 -3 -2 1 -10 7 -17 9 -9 16 -10 25 -2 11 8 11 5 0 -19
-7 -16 -19 -39 -26 -52 -26 -40 -3 -36 34 7 32 36 65 58 49 31 -3 -5 -1 -10 4
-10 6 0 11 3 12 8 5 48 19 67 19 26 0 -22 3 -25 10 -14 5 8 12 12 15 8 4 -3
15 2 26 13 27 27 63 24 101 -10 18 -15 41 -29 51 -30 9 -1 26 -2 36 -3 11 -1
17 -6 15 -10 -5 -8 35 -27 71 -33 85 -15 105 -17 105 -7 0 5 -8 8 -17 6 -10
-3 -36 2 -58 10 l-40 15 34 0 c34 1 36 12 3 18 -64 10 -84 19 -123 55 -24 22
-30 29 -13 16 38 -29 92 -53 101 -44 4 3 -2 13 -13 22 -18 15 -18 15 4 11 17
-4 23 0 28 19 4 14 1 31 -7 41 -12 15 -12 16 6 10 14 -6 10 1 -12 23 -58 55
-44 61 60 28z m-316 -28 c-1 -11 -5 -20 -9 -20 -10 0 -10 4 -2 24 8 22 13 20
11 -4z m-171 -9 c-17 -18 -60 -18 -72 0 -3 5 1 6 9 4 7 -3 24 -1 38 4 37 15
44 13 25 -8z m285 -26 c8 -16 6 -15 -10 4 -12 13 -21 28 -21 35 0 12 14 -5 31
-39z m-441 30 c0 -2 -10 -9 -22 -15 -22 -11 -22 -10 -4 4 21 17 26 19 26 11z
m302 -55 c-9 -16 -19 -25 -21 -19 -3 9 26 49 35 49 2 0 -5 -13 -14 -30z m-377
-44 c-26 -21 -29 -27 -20 -52 13 -36 60 -68 198 -135 9 -5 25 -13 35 -18 9 -5
28 -14 42 -20 14 -7 18 -10 9 -7 -9 2 -22 -1 -29 -7 -8 -7 -11 -8 -7 -1 4 6
-9 16 -30 22 -45 14 -56 8 -14 -6 17 -6 31 -12 31 -14 0 -3 -73 -3 -130 1 -33
3 -33 4 -10 11 14 4 21 9 15 10 -34 6 -47 10 -88 28 -26 12 -58 33 -73 47 -40
40 -38 24 3 -26 21 -24 29 -37 18 -29 -74 54 -91 85 -75 136 10 30 44 54 57
41 3 -3 24 5 46 18 53 31 60 31 22 1z m830 -165 c-9 -8 -36 -10 -30 -2 2 4 11
8 20 8 8 0 13 -3 10 -6z m-45 -15 c0 -8 -56 -39 -84 -47 -17 -4 -57 -15 -90
-24 -32 -9 -73 -18 -90 -20 -51 -7 -177 -8 -183 -1 -4 3 23 6 60 6 36 0 68 4
71 9 3 4 35 11 71 14 36 4 71 10 78 14 7 4 17 8 22 10 72 16 127 32 132 37 7
7 13 8 13 2z m117 -28 c-3 -8 -6 -5 -6 6 -1 11 2 17 5 13 3 -3 4 -12 1 -19z
m-380 6 c-3 -3 -12 -4 -19 -1 -8 3 -5 6 6 6 11 1 17 -2 13 -5z m228 -33 c-14
-12 -109 -42 -148 -47 l-32 -3 30 10 c17 6 41 15 55 21 14 6 38 12 53 13 15 2
31 6 34 9 4 3 9 6 12 6 3 0 1 -4 -4 -9z m-669 -67 c34 -9 113 -43 99 -44 -41
0 -245 78 -245 95 0 8 22 2 59 -16 32 -15 72 -31 87 -35z m764 56 c0 -5 -4
-10 -10 -10 -5 0 -10 5 -10 10 0 6 5 10 10 10 6 0 10 -4 10 -10z m-662 -25
c35 -9 68 -14 75 -11 7 2 4 5 -5 5 -10 1 -18 4 -18 9 0 4 19 6 43 3 37 -4 39
-5 17 -12 -25 -7 -16 -8 130 -14 22 -1 43 -5 47 -9 11 -11 -184 -4 -263 9 -39
7 -84 20 -100 29 -17 10 -21 15 -9 12 11 -3 48 -13 83 -21z m22 15 c20 -6 21
-8 5 -8 -11 0 -29 3 -40 8 -25 11 1 11 35 0z m610 -3 c0 -7 -14 -21 -30 -31
-40 -23 -90 -37 -90 -25 0 5 9 9 20 9 10 0 23 7 28 16 8 14 47 41 65 43 4 1 7
-5 7 -12z m-273 -33 c-3 -3 -12 -4 -19 -1 -8 3 -5 6 6 6 11 1 17 -2 13 -5z"/>
<path d="M1529 3057 c-38 -35 -77 -82 -49 -60 38 29 102 93 94 93 -5 -1 -25
-15 -45 -33z"/>
<path d="M1380 2861 c0 -6 12 -11 27 -11 14 0 65 -7 113 -17 51 -9 95 -13 106
-8 10 4 35 7 54 5 34 -2 36 12 2 15 -9 1 -53 5 -97 9 -44 3 -108 9 -142 12
-43 4 -63 2 -63 -5z"/>
<path d="M914 2189 c0 -10 4 -19 8 -19 4 0 8 6 8 14 0 8 -4 17 -8 20 -4 2 -8
-4 -8 -15z"/>
<path d="M1665 2163 l-100 -12 98 4 c87 3 120 9 106 18 -2 1 -49 -3 -104 -10z"/>
<path d="M1600 2128 c24 -11 24 -12 -20 -19 -26 -5 2 -6 70 -3 63 2 129 7 145
11 27 7 24 8 -25 13 -30 4 -57 3 -58 -2 -2 -4 -7 -6 -11 -4 -4 3 -34 7 -67 10
-50 5 -55 4 -34 -6z"/>
<path d="M2055 2145 c-25 -12 -26 -14 -5 -9 14 4 29 10 35 15 12 12 5 11 -30
-6z"/>
<path d="M2020 2100 c-9 -6 -10 -10 -3 -10 6 0 15 5 18 10 8 12 4 12 -15 0z"/>
<path d="M1728 1893 c6 -2 18 -2 25 0 6 3 1 5 -13 5 -14 0 -19 -2 -12 -5z"/>
<path d="M1845 530 c10 -11 20 -18 23 -16 5 6 -23 36 -34 36 -4 0 1 -9 11 -20z"/>
<path d="M1951 506 c2 -2 15 -9 29 -15 24 -11 24 -11 6 3 -16 13 -49 24 -35
12z"/>
<path d="M2010 472 c0 -6 6 -15 14 -19 7 -4 20 -21 29 -38 l16 -30 -2 36 c-1
21 -6 35 -10 32 -5 -3 -17 3 -28 13 -10 9 -19 12 -19 6z"/>
<path d="M2080 411 c0 -6 4 -13 10 -16 6 -3 7 1 4 9 -7 18 -14 21 -14 7z"/>
<path d="M1530 328 l25 -11 -30 -6 c-22 -5 -26 -8 -13 -13 9 -4 24 0 35 7 16
13 16 16 3 25 -8 5 -22 9 -30 9 -8 0 -4 -5 10 -11z"/>
<path d="M1500 282 c0 -5 7 -13 16 -16 10 -4 14 -1 12 6 -5 15 -28 23 -28 10z"/>
</g>
</svg>
